<svg width="111" height="111" viewBox="0 0 111 111" fill="none" xmlns="http://www.w3.org/2000/svg">
<path d="M4.625 50.875V60.125C4.625 60.125 13.875 60.125 13.875 78.625V83.25C13.875 86.9299 15.3368 90.459 17.9389 93.0611C20.541 95.6632 24.0701 97.125 27.75 97.125H83.25C86.9299 97.125 90.459 95.6632 93.0611 93.0611C95.6632 90.459 97.125 86.9299 97.125 83.25V78.625C97.125 60.125 106.375 60.125 106.375 60.125V50.875C106.375 50.875 97.125 50.875 97.125 32.375V27.75C97.125 24.0701 95.6632 20.541 93.0611 17.9389C90.459 15.3368 86.9299 13.875 83.25 13.875H27.75C24.0701 13.875 20.541 15.3368 17.9389 17.9389C15.3368 20.541 13.875 24.0701 13.875 27.75V32.375C13.875 50.875 4.625 50.875 4.625 50.875ZM95.6172 55.5C95.4785 55.6295 95.3428 55.7621 95.2103 55.8978C90.5483 60.5551 87.875 67.9505 87.875 78.625V83.25C87.875 84.4766 87.3877 85.653 86.5204 86.5204C85.653 87.3877 84.4766 87.875 83.25 87.875H27.75C26.5234 87.875 25.347 87.3877 24.4796 86.5204C23.6123 85.653 23.125 84.4766 23.125 83.25V78.625C23.125 67.9505 20.4518 60.5551 15.7898 55.8978L15.3827 55.5C15.5215 55.3705 15.6572 55.2379 15.7898 55.1022C20.4518 50.4449 23.125 43.0495 23.125 32.375V27.75C23.125 26.5234 23.6123 25.347 24.4796 24.4796C25.347 23.6123 26.5234 23.125 27.75 23.125H83.25C84.4766 23.125 85.653 23.6123 86.5204 24.4796C87.3877 25.347 87.875 26.5234 87.875 27.75V32.375C87.875 43.0495 90.5483 50.4449 95.2103 55.1022L95.6172 55.5ZM39.3125 32.375V78.625H62.4375C65.4397 78.6263 68.3613 77.6537 70.7638 75.8534C73.1663 74.0531 74.92 71.522 75.7618 68.6403C76.6035 65.7585 76.4879 62.6814 75.4322 59.871C74.3765 57.0605 72.4377 54.6683 69.9069 53.0534C71.0948 50.942 71.7091 48.5563 71.6888 46.1338C71.6685 43.7112 71.0143 41.3362 69.7912 39.245C68.5681 37.1538 66.8187 35.4192 64.7172 34.214C62.6156 33.0087 60.2351 32.3747 57.8125 32.375H39.3125ZM48.5625 50.875V41.625H57.8125C59.0391 41.625 60.2155 42.1123 61.0829 42.9796C61.9502 43.847 62.4375 45.0234 62.4375 46.25C62.4375 47.4766 61.9502 48.653 61.0829 49.5204C60.2155 50.3877 59.0391 50.875 57.8125 50.875H48.5625ZM48.5625 60.125H62.4375C63.6641 60.125 64.8405 60.6123 65.7079 61.4796C66.5752 62.347 67.0625 63.5234 67.0625 64.75C67.0625 65.9766 66.5752 67.153 65.7079 68.0204C64.8405 68.8877 63.6641 69.375 62.4375 69.375H48.5625V60.125Z" fill="#7512F6"/>
</svg>
