<svg width="193" height="193" viewBox="0 0 193 193" fill="none" xmlns="http://www.w3.org/2000/svg">
<path d="M104.542 108.562V100.521H84.4375C82.159 100.521 80.2505 99.7488 78.7118 98.2048C77.1732 96.6608 76.4012 94.7523 76.3958 92.4792V80.4167C76.3958 78.1382 77.1678 76.2296 78.7118 74.691C80.2558 73.1524 82.1644 72.3804 84.4375 72.375H110.573C112.315 72.375 113.757 72.946 114.899 74.0879C116.041 75.2298 116.61 76.6692 116.604 78.4062C116.599 80.1432 116.028 81.5854 114.891 82.7327C113.755 83.8799 112.315 84.4482 110.573 84.4375H88.4583V92.4792H108.562C110.841 92.4792 112.752 93.2512 114.296 94.7952C115.84 96.3392 116.61 98.2477 116.604 100.521V112.583C116.604 114.862 115.832 116.773 114.288 118.317C112.744 119.861 110.836 120.63 108.562 120.625H82.4271C80.6847 120.625 79.2453 120.054 78.1087 118.912C76.9721 117.77 76.4012 116.331 76.3958 114.594C76.3905 112.857 76.9614 111.417 78.1087 110.275C79.256 109.133 80.6954 108.562 82.4271 108.562H104.542ZM156.812 108.562V100.521H136.708C134.43 100.521 132.521 99.7488 130.983 98.2048C129.444 96.6608 128.672 94.7523 128.667 92.4792V80.4167C128.667 78.1382 129.439 76.2296 130.983 74.691C132.527 73.1524 134.435 72.3804 136.708 72.375H162.844C164.586 72.375 166.028 72.946 167.17 74.0879C168.312 75.2298 168.88 76.6692 168.875 78.4062C168.87 80.1432 168.299 81.5854 167.162 82.7327C166.026 83.8799 164.586 84.4482 162.844 84.4375H140.729V92.4792H160.833C163.112 92.4792 165.023 93.2512 166.567 94.7952C168.111 96.3392 168.88 98.2477 168.875 100.521V112.583C168.875 114.862 168.103 116.773 166.559 118.317C165.015 119.861 163.106 120.63 160.833 120.625H134.698C132.956 120.625 131.516 120.054 130.38 118.912C129.243 117.77 128.672 116.331 128.667 114.594C128.661 112.857 129.232 111.417 130.38 110.275C131.527 109.133 132.966 108.562 134.698 108.562H156.812ZM32.1667 120.625C29.8882 120.625 27.9796 119.853 26.441 118.309C24.9024 116.765 24.1304 114.856 24.125 112.583V80.4167C24.125 78.1382 24.897 76.2296 26.441 74.691C27.985 73.1524 29.8936 72.3804 32.1667 72.375H56.2917C58.5701 72.375 60.4814 73.147 62.0254 74.691C63.5694 76.235 64.3387 78.1436 64.3333 80.4167V84.6385C64.3333 86.2469 63.7302 87.622 62.524 88.7639C61.3177 89.9058 59.9104 90.4741 58.3021 90.4687C56.5597 90.4687 55.1203 89.8978 53.9837 88.7559C52.8471 87.614 52.2762 86.1745 52.2708 84.4375H36.1875V108.562H52.2708C52.2708 106.954 52.8418 105.547 53.9837 104.341C55.1256 103.134 56.5651 102.531 58.3021 102.531C59.9104 102.531 61.3177 103.134 62.524 104.341C63.7302 105.547 64.3333 106.954 64.3333 108.562V112.583C64.3333 114.862 63.5613 116.773 62.0173 118.317C60.4733 119.861 58.5648 120.63 56.2917 120.625H32.1667Z" fill="#33A9DC"/>
</svg>
