<svg width="193" height="193" viewBox="0 0 193 193" fill="none" xmlns="http://www.w3.org/2000/svg">
<path d="M0 114.594V78.4063C0 76.6639 0.570958 75.2245 1.71287 74.0879C2.85479 72.9514 4.29425 72.3804 6.03125 72.375C7.76825 72.3697 9.21039 72.9406 10.3577 74.0879C11.5049 75.2352 12.0732 76.6746 12.0625 78.4063V88.4584H28.1458V78.4063C28.1458 76.6639 28.7168 75.2245 29.8587 74.0879C31.0006 72.9514 32.4401 72.3804 34.1771 72.375C35.9141 72.3697 37.3562 72.9406 38.5035 74.0879C39.6508 75.2352 40.2191 76.6746 40.2083 78.4063V114.594C40.2083 116.336 39.6374 117.778 38.4955 118.92C37.3535 120.062 35.9141 120.63 34.1771 120.625C32.4401 120.62 31.0006 120.049 29.8587 118.912C28.7168 117.776 28.1458 116.336 28.1458 114.594V100.521H12.0625V114.594C12.0625 116.336 11.4915 117.778 10.3496 118.92C9.20771 120.062 7.76825 120.63 6.03125 120.625C4.29425 120.62 2.85479 120.049 1.71287 118.912C0.570958 117.776 0 116.336 0 114.594ZM62.3229 114.594V84.4375H54.2812C52.5389 84.4375 51.0994 83.8666 49.9629 82.7247C48.8263 81.5827 48.2554 80.1433 48.25 78.4063C48.2446 76.6693 48.8156 75.2298 49.9629 74.0879C51.1101 72.946 52.5496 72.375 54.2812 72.375H82.4271C84.1694 72.375 85.6116 72.946 86.7535 74.0879C87.8954 75.2298 88.4637 76.6693 88.4583 78.4063C88.453 80.1433 87.882 81.5854 86.7455 82.7327C85.6089 83.88 84.1694 84.4483 82.4271 84.4375H74.3854V114.594C74.3854 116.336 73.8145 117.778 72.6725 118.92C71.5306 120.062 70.0912 120.63 68.3542 120.625C66.6172 120.62 65.1777 120.049 64.0358 118.912C62.8939 117.776 62.3229 116.336 62.3229 114.594ZM96.5 114.594V80.4167C96.5 78.1382 97.272 76.2297 98.816 74.691C100.36 73.1524 102.269 72.3804 104.542 72.375H140.729C143.008 72.375 144.919 73.147 146.463 74.691C148.007 76.235 148.776 78.1436 148.771 80.4167V114.594C148.771 116.336 148.2 117.778 147.058 118.92C145.916 120.062 144.477 120.63 142.74 120.625C141.003 120.62 139.563 120.049 138.421 118.912C137.279 117.776 136.708 116.336 136.708 114.594V84.4375H128.667V106.552C128.667 108.294 128.096 109.737 126.954 110.879C125.812 112.02 124.372 112.589 122.635 112.583C120.898 112.578 119.459 112.007 118.317 110.87C117.175 109.734 116.604 108.294 116.604 106.552V84.4375H108.562V114.594C108.562 116.336 107.992 117.778 106.85 118.92C105.708 120.062 104.268 120.63 102.531 120.625C100.794 120.62 99.3548 120.049 98.2129 118.912C97.071 117.776 96.5 116.336 96.5 114.594ZM166.865 120.625C165.122 120.625 163.683 120.054 162.546 118.912C161.41 117.77 160.839 116.331 160.833 114.594V78.4063C160.833 76.6639 161.404 75.2245 162.546 74.0879C163.688 72.9514 165.128 72.3804 166.865 72.375C168.602 72.3697 170.044 72.9406 171.191 74.0879C172.338 75.2352 172.907 76.6746 172.896 78.4063V108.563H186.969C188.711 108.563 190.153 109.133 191.295 110.275C192.437 111.417 193.005 112.857 193 114.594C192.995 116.331 192.424 117.773 191.287 118.92C190.151 120.067 188.711 120.636 186.969 120.625H166.865Z" fill="#F16529"/>
</svg>
