<svg width="100" height="100" viewBox="0 0 100 100" fill="none" xmlns="http://www.w3.org/2000/svg">
<mask id="mask0_218_188" style="mask-type:luminance" maskUnits="userSpaceOnUse" x="0" y="0" width="100" height="100">
<path d="M0 0H100V100H0V0Z" fill="white"/>
</mask>
<g mask="url(#mask0_218_188)">
<path fill-rule="evenodd" clip-rule="evenodd" d="M84.375 29.6875C84.375 28.4443 83.8811 27.252 83.0021 26.3729C82.123 25.4939 80.9307 25 79.6875 25C78.4443 25 77.252 25.4939 76.3729 26.3729C75.4939 27.252 75 28.4443 75 29.6875V70.3125C75 72.9 77.1 75 79.6875 75H95.3125C96.5557 75 97.748 74.5061 98.6271 73.6271C99.5061 72.748 100 71.5557 100 70.3125C100 69.0693 99.5061 67.877 98.6271 66.9979C97.748 66.1189 96.5557 65.625 95.3125 65.625H84.375V29.6875ZM68.75 50C68.75 58.25 67.1438 64.4625 64.3188 68.625L70.5063 74.8125C70.9538 75.2451 71.3106 75.7625 71.556 76.3345C71.8014 76.9065 71.9304 77.5217 71.9355 78.1441C71.9406 78.7665 71.8217 79.3837 71.5858 79.9597C71.3498 80.5356 71.0015 81.0588 70.5612 81.4987C70.1209 81.9386 69.5973 82.2865 69.0211 82.5219C68.445 82.7573 67.8277 82.8756 67.2053 82.8699C66.5829 82.8642 65.9678 82.7346 65.3961 82.4887C64.8243 82.2428 64.3072 81.8854 63.875 81.4375L56.8 74.3625C55.4042 74.7875 53.9188 75 52.3438 75C42.5 75 35.9375 66.6688 35.9375 50C35.9375 33.3313 42.5 25 52.3438 25C62.1875 25 68.75 33.3313 68.75 50ZM56.5188 63.4375C57.9063 61.425 59.375 57.3125 59.375 50.0063C59.375 42.7063 57.9063 38.5938 56.5188 36.575C55.425 34.9875 54.2313 34.3875 52.3438 34.3875C50.4563 34.3875 49.2625 34.9875 48.1688 36.575C46.7813 38.5938 45.3125 42.7063 45.3125 50.0125C45.3125 57.3063 46.7813 61.425 48.1688 63.4375C49.2625 65.025 50.4563 65.6313 52.3438 65.6313C54.2313 65.6313 55.425 65.025 56.5188 63.4375ZM16.0125 25.0125C11.7063 25.0125 7.98125 26.5688 5.375 29.4688C2.83125 32.3125 1.73125 36 1.73125 39.7C1.73125 44.275 3.76875 47.7 6.475 50.0625C9.0375 52.3 12.15 53.5688 14.6313 54.3375C17.1188 55.1 18.9063 55.6938 20.1938 56.6625C21.1125 57.3688 21.8813 58.325 21.8813 60.5688C21.8813 62.3813 21.2 63.4938 20.3 64.25C19.072 65.19 17.5584 65.6798 16.0125 65.6375C14.75 65.6375 13.275 65.0563 11.9 63.8063C10.6196 62.6705 9.70043 61.1841 9.25625 59.5313C8.95276 58.3485 8.19969 57.3308 7.15729 56.6948C6.11488 56.0588 4.86544 55.8547 3.67483 56.1258C2.48421 56.397 1.44642 57.1221 0.782276 58.1468C0.118134 59.1715 -0.119927 60.4149 0.118752 61.6125C0.912502 65.0938 2.95 68.3563 5.60625 70.7563C8.26875 73.1688 11.8938 75.0125 16.0125 75.0125C19.625 75.0125 23.3688 73.8875 26.3063 71.45C29.3375 68.9188 31.25 65.1625 31.25 60.575C31.25 55.3063 29.05 51.6188 25.85 49.1938C23.1375 47.1375 19.8375 46.1313 17.6875 45.4688L17.3938 45.375C15.4563 44.7813 13.775 43.9938 12.6438 43C12.1484 42.6074 11.7516 42.1047 11.4847 41.5319C11.2177 40.959 11.0882 40.3317 11.1063 39.7C11.1063 37.8 11.6688 36.5 12.3563 35.7313C12.975 35.0438 14.0438 34.3875 16.0125 34.3875C18.025 34.3875 19.125 35.0063 19.8375 35.675C20.65 36.4438 21.2938 37.6313 21.7125 39.175C22.0567 40.3485 22.8459 41.341 23.9117 41.9407C24.9774 42.5405 26.2354 42.7 27.4171 42.3852C28.5988 42.0704 29.6108 41.3062 30.2369 40.2558C30.8631 39.2053 31.0539 37.9517 30.7688 36.7625C30.0625 34.1375 28.7375 31.1875 26.275 28.8688C23.7188 26.45 20.2688 25.0125 16.0125 25.0125Z" fill="#828282"/>
</g>
</svg>
